PathFileType	4	(X/Y/Z)	D:\TRACE\spot_10-12-23\spot_body_motion_3_5-v60.trc
DataRate	CameraRate	NumFrames	NumMarkers	Units	OrigDataRate	OrigDataStartFrame	OrigNumFrames
100.00	100.00	      39	9	mm	100.00	3501	      7000
Frame#	Time	front left toe			Front right toe			aft left toe			aft right toe			Arm			FL body			FR body			AL Body			AR Body			
		X1	Y1	Z1	X2	Y2	Z2	X3	Y3	Z3	X4	Y4	Z4	X5	Y5	Z5	X6	Y6	Z6	X7	Y7	Z7	X8	Y8	Z8	X9	Y9	Z9	

3501	35.000	-219.74159	17.94902	148.30882	247.65559	19.88115	74.63319	-167.06778	7.74164	603.20605	309.53860	3.97236	506.93005	-4.36140	810.98431	-88.32510	-86.49512	547.64105	-63.66319	63.93179	553.37805	-88.50410	51.45538	530.49420	809.10809	200.22853	529.61816	787.56299	
3502	35.010	-219.67409	18.01422	148.24213	97.74969	396.23175	-36.62598	-167.06206	7.91538	603.15308	309.47089	4.13133	506.94186	-4.02221	811.22406	-87.95263	-86.09769	547.93744	-63.38430	64.27657	553.59174	-88.29580	51.72195	530.49951	809.32745	200.42526	529.57776	787.97150	
3503	35.020	-219.65935	18.04614	148.19601	-27.64157	738.30878	108.20251	-167.03273	8.09001	603.09546	309.49579	4.25904	506.93015	-3.69343	811.50970	-87.61626	-85.79588	548.33221	-63.13773	64.94032	553.65851	-88.05418	51.75791	530.61053	809.26764	200.74420	529.47461	788.31104	
3504	35.030	-219.63774	18.07499	148.16277	1.61884	705.23523	474.40710	-167.04137	8.27890	603.06146	309.49173	4.35566	506.98050	-3.05903	811.67389	-87.23832	-85.45471	548.43103	-62.96377	65.18222	554.19318	-88.15307	52.05418	530.54907	809.51453	200.88846	529.50635	788.32294	
3505	35.040	-219.62160	18.11254	148.13091	111.86569	444.32312	688.26709	-167.02010	8.46095	603.06866	309.50006	4.43543	506.98599	-2.38493	811.83331	-86.76585	-85.14308	548.60046	-62.58733	65.53188	554.41766	-87.75631	52.74736	530.35468	810.41095	201.28757	529.40515	788.65918	
3506	35.050	-219.62363	18.14676	148.12413	199.85963	187.81871	447.50317	-167.02223	8.63032	603.08850	309.50510	4.55839	507.04492	-1.89780	811.99463	-86.35736	-84.53241	548.81793	-62.11877	66.09610	554.39978	-86.70949	52.94902	530.43329	810.92828	201.89719	529.34485	789.36682	
3507	35.060	-219.64801	18.15966	148.12198	247.86713	19.51838	74.61069	-166.95958	8.74574	603.12903	309.54337	4.59318	507.06894	-1.45546	812.19824	-85.93156	-84.05187	548.97186	-61.57779	66.25038	554.53705	-86.41880	52.85757	530.52258	810.84497	202.08118	529.36975	789.74780	
3508	35.070	-219.65987	18.24295	148.09473	261.73367	-32.08633	-58.21952	-166.99144	8.89556	603.15021	309.50082	4.64500	507.00882	-0.89421	812.41479	-85.45461	-83.63396	549.39368	-61.25736	66.07867	555.15936	-86.55912	53.17889	530.52350	811.11279	202.15300	529.35455	789.96460	
3509	35.080	-219.66158	18.29673	148.05008	256.11514	-11.27276	-4.78986	-166.94398	9.03404	603.14679	309.51358	4.69965	506.97699	-0.33082	812.67859	-85.01792	-83.24844	549.57690	-61.07749	67.34485	554.94476	-86.13605	53.50435	530.58173	811.27948	202.46666	529.25073	790.31567	
3510	35.090	-219.62895	18.34347	148.05829	247.86992	19.48958	74.59914	-166.93636	9.14411	603.10553	309.46622	4.76592	506.97772	0.32612	812.91278	-84.58453	-82.82780	549.72272	-60.45847	67.56197	555.11993	-85.72827	54.33082	530.16833	812.30170	203.07506	529.20685	791.06128	
3511	35.100	-219.64587	18.43633	148.01837	247.96292	19.33656	74.69064	-166.93304	9.33834	603.04840	309.42123	4.83767	506.94745	0.89737	813.01123	-84.08417	-82.39115	549.88159	-60.02423	68.04977	555.11475	-85.18922	54.43321	530.58154	812.56653	203.30762	529.28033	791.41577	
3512	35.110	-219.63840	18.47345	148.03143	247.86618	19.44749	74.61469	-166.92130	9.53949	602.96790	309.26956	4.90863	506.88867	1.42702	813.12299	-83.62942	-82.04358	550.13617	-59.57093	68.58637	555.23621	-84.61450	54.86705	530.78674	812.97223	203.61441	529.27869	791.87390	
3513	35.120	-219.63568	18.51397	147.97699	248.01399	19.30846	74.71236	-166.94043	9.73867	602.96387	309.25098	5.03016	506.91025	1.79148	813.19861	-83.21925	-81.65890	550.23151	-59.20966	68.87174	555.27191	-84.27840	55.38864	531.12463	814.04547	204.24200	529.27374	792.57446	
3514	35.130	-219.60484	18.52407	148.00938	247.86198	19.41031	74.60085	-166.95425	9.95328	602.95361	309.29929	5.21437	506.90448	2.35109	813.24341	-82.75813	-81.01310	550.28564	-58.57711	69.19788	555.39063	-83.81669	55.69170	531.20923	814.46863	204.68980	529.45923	792.86139	
3515	35.140	-219.54729	18.59300	147.96626	248.05463	19.25822	74.69859	-166.96394	10.08515	602.94263	309.30469	5.24927	506.89548	2.97546	813.34930	-82.20274	-80.86353	550.47418	-57.99131	69.63174	555.54260	-83.22518	55.72018	531.34375	814.47540	205.02019	529.51434	793.30139	
3516	35.150	-219.58524	18.66512	147.95996	248.03500	19.27609	74.67861	-166.98459	10.27057	602.94440	307.38696	4.45185	506.59979	3.32600	813.42346	-81.81872	-80.60443	550.63837	-57.58286	70.09429	555.61945	-82.61120	56.34057	531.27826	815.12976	205.31342	529.47168	793.93530	
3517	35.160	-219.55734	18.72903	147.98753	248.00130	19.24962	74.70943	-167.00224	10.48214	602.92639	307.45117	4.55314	506.64932	3.92835	813.61377	-81.18163	-80.22683	550.91644	-56.98629	70.69218	555.47021	-81.57076	57.00578	531.41394	815.78210	205.86079	529.61981	794.58539	
3518	35.170	-219.55804	18.72238	148.05721	247.84625	19.40070	74.59367	-167.03745	10.66929	602.89343	307.49017	4.61617	506.64169	4.50119	813.81946	-80.62661	-79.87218	551.13721	-56.46011	70.87495	555.53644	-81.16669	57.47333	531.63995	816.56982	206.31114	529.73315	794.84546	
3519	35.180	-219.65829	18.81882	148.01251	247.81151	19.41519	74.57823	-167.04248	10.75063	602.88434	307.52463	4.71767	506.71725	4.88913	813.97705	-80.20847	-79.59489	551.29871	-55.80455	71.17812	555.88684	-81.02822	57.65346	531.88586	816.55554	206.84691	529.74115	795.37122	
3520	35.190	-219.65431	18.83150	148.09424	247.82089	19.39892	74.58382	-167.03893	10.82078	602.89459	307.54730	4.74015	506.72571	5.26941	814.12372	-79.68940	-79.17721	551.44727	-55.25196	71.65068	555.61243	-79.86008	58.39313	531.96405	817.49670	207.27132	529.80011	795.97589	
3521	35.200	-219.67624	18.83850	148.15836	247.79575	19.38316	74.57070	-167.00288	10.90787	602.90564	307.68713	4.82239	506.74680	5.78665	814.14331	-79.11671	-78.74764	551.55481	-54.80312	71.79448	555.65753	-79.62953	58.48454	532.23871	817.95447	207.49063	529.78778	796.22058	
3522	35.210	-219.66060	18.91799	148.14403	247.79456	19.41499	74.57371	-166.98923	10.95138	602.91791	307.75247	4.87542	506.81375	6.16174	814.25702	-78.54431	-78.43044	551.68005	-54.28901	72.13557	555.76709	-79.09212	58.37715	532.37659	818.26312	208.23744	529.65100	796.84668	
3523	35.220	-219.62029	18.96462	148.16951	247.80937	19.39193	74.57505	-166.94528	10.99668	602.92859	307.77185	4.94202	506.82153	6.36508	814.37335	-78.13403	-78.00829	551.69586	-53.69822	72.58730	556.14233	-78.86651	60.29285	532.35608	819.14746	208.57780	529.59436	797.25250	
3524	35.230	-219.68716	19.03517	148.17984	247.80052	19.37715	74.59361	-166.95888	11.07304	602.93420	307.93231	4.92520	506.87729	6.93832	814.45166	-77.50050	-77.60770	551.72040	-52.98602	72.87916	555.91974	-77.82523	59.46407	532.65479	819.17340	209.02594	529.79041	797.74036	
3525	35.240	-219.56253	18.87826	148.38976	247.78017	19.40528	74.60574	-166.95415	11.12403	602.93628	307.96667	4.89565	506.89825	7.57589	814.59784	-76.91875	-77.35780	551.82831	-52.51046	73.06503	555.93457	-77.53317	62.16034	532.39771	819.53772	209.44490	529.55914	798.05170	
3526	35.250	-219.61148	18.92286	148.38358	247.79616	19.33206	74.61042	-166.94180	11.14658	602.93689	307.90082	4.78466	506.91403	7.92510	814.53827	-76.51198	-77.03661	551.85284	-51.92792	73.65845	555.94360	-76.85882	62.87111	532.56903	820.18652	209.47536	529.44269	798.17047	
3527	35.260	-219.68077	19.11370	148.29997	247.79520	19.34422	74.60090	-167.02658	11.22143	602.93524	307.92703	4.79187	506.90967	8.43589	814.51770	-75.89538	-76.54822	551.91113	-51.34784	74.03878	556.17389	-76.68607	62.11742	532.97296	820.94800	209.81493	529.95441	798.97571	
3528	35.270	-219.66077	19.19988	148.28053	247.79395	19.32030	74.63253	-167.03912	11.28892	602.93073	307.94952	4.80961	506.94293	8.87059	814.51978	-75.37112	-76.19573	551.86279	-50.81224	74.21490	556.24823	-76.35193	62.32191	533.07446	821.74072	209.93761	529.50714	798.54639	
3529	35.280	-219.65022	19.21387	148.30789	247.73798	19.30913	74.59072	-167.09505	11.39955	602.85724	307.91550	4.77315	506.88181	9.04645	814.50647	-74.99586	-75.91003	551.93622	-50.41537	74.59149	556.25940	-75.88103	62.80405	533.11066	822.33289	210.19073	529.43536	799.05475	
3530	35.290	-219.64972	19.30036	148.30762	247.86760	19.16214	74.73347	-167.11351	11.45563	602.85229	307.91330	4.83618	506.93597	9.34952	814.49756	-74.53425	-75.34242	551.95459	-49.66793	75.09682	556.22992	-75.10269	63.03822	533.57892	822.58301	211.98012	531.03625	801.20398	
3531	35.300	-219.62964	19.30317	148.35266	247.79025	19.21926	74.65869	-167.19339	11.53834	602.87555	308.00613	4.88686	506.88043	9.96620	814.47815	-73.89937	-74.87696	551.97003	-49.17356	75.51050	556.19769	-74.52340	63.66930	533.28186	823.17804	213.23515	531.70679	802.95386	
3532	35.310	-219.63000	19.39517	148.31918	247.83418	19.11570	74.75281	-167.40219	11.67812	602.77203	308.00949	4.89962	506.90552	10.13274	814.41266	-73.53555	-74.60606	552.05121	-48.77517	75.88210	555.95868	-73.52837	63.82522	533.69684	824.04993	212.74893	531.66638	802.35175	
3533	35.320	-219.66078	19.38591	148.33508	247.86531	19.07955	74.79051	-167.51581	11.80517	602.70355	308.03412	4.93369	506.89972	10.55124	814.37170	-73.04456	-73.99195	551.97748	-48.02612	76.57432	556.17426	-73.36023	64.00993	534.23041	824.43262	214.40607	532.96326	804.71552	
3534	35.330	-219.70964	19.46580	148.37329	247.87814	19.02992	74.86497	-167.73099	11.95551	602.64276	308.10519	4.95942	506.96094	11.15163	814.32800	-72.42711	-73.51476	551.93683	-47.45436	77.15031	556.02069	-72.34821	64.21449	534.93152	825.63708	214.46295	532.83838	805.02185	
3535	35.340	-219.70169	19.55445	148.34673	247.88774	19.00526	74.89563	-167.95438	12.23735	602.54004	308.12689	4.98045	506.98682	11.46975	814.33612	-72.01026	-73.24636	551.91479	-47.12575	77.45876	556.38135	-72.46482	64.06590	535.11365	825.76154	214.55452	533.06055	805.35760	
3536	35.350	-219.66118	19.56903	148.35547	247.90086	18.97211	74.92000	-168.15392	12.30867	602.54187	308.13290	4.94337	507.03094	11.73944	814.34845	-71.54376	-72.65282	551.81372	-46.41801	78.27986	556.16382	-71.75297	64.39787	535.38251	826.60681	214.66040	533.12805	805.45520	
3537	35.360	-219.70683	19.65482	148.36928	247.86328	18.96266	74.92323	-168.40140	12.54875	602.44086	308.02231	4.93754	507.03207	11.96397	814.41974	-71.08571	-72.14172	551.74371	-45.82379	78.63963	556.31445	-70.63605	64.89867	535.68964	827.18359	214.94432	533.23206	805.78229	
3538	35.370	-219.67847	19.68682	148.36351	247.84549	19.00952	74.91753	-166.26523	11.12034	603.16479	307.03741	5.26852	506.52914	12.30027	814.44092	-70.43476	-71.74772	551.71552	-45.41790	78.77025	556.32318	-70.23997	65.28082	535.79626	827.62286	215.06844	533.46448	805.79529	
3539	35.380	-219.69438	19.70437	148.42163	247.81839	18.99431	74.90321	-166.39487	11.30317	603.06409	306.99106	5.32059	506.53024	12.50759	814.53052	-69.99226	-71.25169	551.66418	-44.80949	79.20930	556.64417	-70.15481	66.28300	535.81458	827.81897	215.70166	533.73566	806.81506	
